<svg width="68" height="68" viewBox="0 0 68 68" fill="none" xmlns="http://www.w3.org/2000/svg">
<circle cx="34" cy="34" r="34" fill="#FBB466"/>
<path d="M45.896 38.48C45.896 39.952 45.416 41.136 44.456 42.032C43.496 42.864 42.28 43.28 40.808 43.28C39.08 43.28 37.64 42.704 36.488 41.552C35.4 40.4 34.856 38.704 34.856 36.464C34.856 34.352 35.144 32.56 35.72 31.088C36.36 29.552 37.096 28.272 37.928 27.248C38.824 26.16 39.72 25.296 40.616 24.656C41.576 24.016 42.408 23.568 43.112 23.312L45.512 26.672C44.104 27.376 42.952 28.336 42.056 29.552C41.224 30.704 40.808 32.176 40.808 33.968C41.064 33.904 41.416 33.872 41.864 33.872C43.144 33.872 44.136 34.32 44.84 35.216C45.544 36.112 45.896 37.2 45.896 38.48ZM31.88 38.48C31.88 39.952 31.4 41.136 30.44 42.032C29.48 42.864 28.264 43.28 26.792 43.28C25.064 43.28 23.624 42.704 22.472 41.552C21.384 40.4 20.84 38.704 20.84 36.464C20.84 34.352 21.128 32.56 21.704 31.088C22.344 29.552 23.08 28.272 23.912 27.248C24.808 26.16 25.704 25.296 26.6 24.656C27.56 24.016 28.392 23.568 29.096 23.312L31.496 26.672C30.088 27.376 28.936 28.336 28.04 29.552C27.208 30.704 26.792 32.176 26.792 33.968C27.048 33.904 27.4 33.872 27.848 33.872C29.128 33.872 30.12 34.32 30.824 35.216C31.528 36.112 31.88 37.2 31.88 38.48Z" fill="#272624"/>
</svg>
